<svg width="70" height="70" viewBox="0 0 70 70" fill="none" xmlns="http://www.w3.org/2000/svg">
<path d="M8.75 61.2503C8.46305 61.2577 8.17836 61.1978 7.91875 61.0753C7.51927 60.9112 7.17731 60.6325 6.93595 60.2744C6.6946 59.9163 6.56466 59.4947 6.5625 59.0628V19.2066C6.59375 17.8017 6.90148 16.4168 7.46812 15.1309C8.03476 13.8451 8.8492 12.6834 9.86492 11.7124C10.8806 10.7414 12.0777 9.98 13.3878 9.47176C14.6978 8.96352 16.0952 8.71837 17.5 8.75033H52.5C53.9048 8.71837 55.3022 8.96352 56.6122 9.47176C57.9223 9.98 59.1194 10.7414 60.1351 11.7124C61.1508 12.6834 61.9652 13.8451 62.5319 15.1309C63.0985 16.4168 63.4063 17.8017 63.4375 19.2066V39.8566C63.4063 41.2614 63.0985 42.6463 62.5319 43.9322C61.9652 45.2181 61.1508 46.3797 60.1351 47.3507C59.1194 48.3218 57.9223 49.0831 56.6122 49.5914C55.3022 50.0996 53.9048 50.3448 52.5 50.3128H20.5844L10.3031 60.6159C10.0987 60.8187 9.85631 60.9791 9.5898 61.088C9.32328 61.1968 9.03789 61.252 8.75 61.2503ZM17.5 13.1253C15.8246 13.0661 14.1938 13.6725 12.9641 14.812C11.7344 15.9515 11.0058 17.5315 10.9375 19.2066V53.791L18.1344 46.5722C18.3388 46.3695 18.5812 46.2091 18.8477 46.1002C19.1142 45.9913 19.3996 45.9362 19.6875 45.9378H52.5C54.1754 45.997 55.8062 45.3906 57.0359 44.2511C58.2656 43.1116 58.9942 41.5317 59.0625 39.8566V19.2066C58.9942 17.5315 58.2656 15.9515 57.0359 14.812C55.8062 13.6725 54.1754 13.0661 52.5 13.1253H17.5Z" fill="white"/>
<path d="M35 32.813C36.8122 32.813 38.2812 31.3439 38.2812 29.5317C38.2812 27.7196 36.8122 26.2505 35 26.2505C33.1878 26.2505 31.7188 27.7196 31.7188 29.5317C31.7188 31.3439 33.1878 32.813 35 32.813Z" fill="white"/>
<path d="M47.0312 32.813C48.8434 32.813 50.3125 31.3439 50.3125 29.5317C50.3125 27.7196 48.8434 26.2505 47.0312 26.2505C45.2191 26.2505 43.75 27.7196 43.75 29.5317C43.75 31.3439 45.2191 32.813 47.0312 32.813Z" fill="white"/>
<path d="M22.9688 32.813C24.7809 32.813 26.25 31.3439 26.25 29.5317C26.25 27.7196 24.7809 26.2505 22.9688 26.2505C21.1566 26.2505 19.6875 27.7196 19.6875 29.5317C19.6875 31.3439 21.1566 32.813 22.9688 32.813Z" fill="white"/>
</svg>
