<svg width="116" height="116" viewBox="0 0 116 116" fill="none" xmlns="http://www.w3.org/2000/svg">
<g clip-path="url(#clip0_1130_74)">
<path d="M39.0177 108.799C34.673 108.799 30.4371 107.975 26.4271 106.348C22.2725 104.663 18.547 102.19 15.3533 98.9973C12.1597 95.8049 9.68676 92.0781 8.00268 87.9235C6.37598 83.9136 5.55127 79.6777 5.55127 75.333C5.55127 70.9883 6.37598 66.7513 8.00268 62.7413C9.68676 58.5867 12.1609 54.8611 15.3533 51.6675L15.3617 51.6591L59.4596 7.77273C61.733 5.50061 64.3864 3.73884 67.3458 2.53883C70.2011 1.38065 73.2167 0.792603 76.31 0.792603C79.402 0.792603 82.4176 1.38065 85.2742 2.53883C88.2336 3.73884 90.8858 5.50061 93.1603 7.77273C95.4336 10.0461 97.1942 12.6995 98.3954 15.6588C99.5536 18.5154 100.14 21.531 100.14 24.6243C100.14 27.7175 99.5536 30.7331 98.3954 33.5897C97.1942 36.549 95.4336 39.2013 93.1603 41.4758L49.1592 85.4745C47.7906 86.843 46.195 87.902 44.4117 88.6263C42.693 89.3232 40.8774 89.6769 39.0165 89.6769C37.1555 89.6769 35.3411 89.3232 33.6212 88.6263C31.8391 87.9032 30.2423 86.843 28.8738 85.4745C27.5052 84.1072 26.4462 82.5103 25.7231 80.7283C25.0287 79.0083 24.6749 77.194 24.6749 75.333C24.6749 73.472 25.0287 71.6565 25.7255 69.9377C26.4474 68.1557 27.5076 66.5576 28.8761 65.1891L69.4434 24.6231C71.3103 22.7561 74.3378 22.7561 76.2048 24.6231C78.0717 26.49 78.0717 29.5175 76.2048 31.3845L35.6375 71.9505C34.734 72.8553 34.2367 74.0565 34.2367 75.333C34.2367 76.6095 34.734 77.8095 35.6375 78.7131C36.5399 79.6167 37.7411 80.1139 39.0177 80.1139C40.2942 80.1139 41.4954 79.6167 42.3978 78.7131L86.3989 34.7132C89.0941 32.0179 90.5786 28.4346 90.5786 24.6243C90.5786 20.8139 89.0941 17.2294 86.3989 14.5353C83.7048 11.8389 80.1215 10.3544 76.31 10.3544C72.4984 10.3544 68.9139 11.8389 66.221 14.5341L66.2127 14.5425L22.1112 58.4325C19.8295 60.7154 18.0629 63.3747 16.8617 66.3353C15.7023 69.1979 15.1131 72.2266 15.1131 75.333C15.1131 78.4394 15.7023 81.4669 16.8629 84.3295C18.0653 87.2924 19.8307 89.9518 22.1159 92.2347C24.3988 94.5176 27.0594 96.2854 30.02 97.4866C32.8837 98.6483 35.9113 99.2376 39.0177 99.2376C42.1241 99.2376 45.1528 98.6483 48.0153 97.4866C50.9783 96.2854 53.6365 94.5188 55.9206 92.2347L99.8691 48.2862C101.736 46.4192 104.764 46.4192 106.629 48.2862C108.496 50.1531 108.496 53.1806 106.629 55.0476L62.6808 98.9961C59.4883 102.189 55.7628 104.662 51.607 106.347C47.5994 107.975 43.3623 108.799 39.0177 108.799Z" fill="#F8C37B"/>
</g>
<defs>
<clipPath id="clip0_1130_74">
<rect width="114.742" height="114.742" fill="white" transform="translate(0.770508 0.79248)"/>
</clipPath>
</defs>
</svg>
