<svg width="512" height="512" viewBox="0 0 512 512" fill="none" xmlns="http://www.w3.org/2000/svg">
<path d="M207.147 240.854C203.129 236.836 197.681 234.58 192 234.58C186.319 234.58 180.87 236.836 176.853 240.854C172.836 244.871 170.579 250.319 170.579 256C170.579 261.681 172.836 267.13 176.853 271.147L240.853 335.147C242.847 337.124 245.211 338.688 247.81 339.75C250.409 340.812 253.192 341.35 256 341.334C258.92 341.241 261.791 340.549 264.433 339.302C267.075 338.054 269.433 336.277 271.36 334.08L420.693 163.414C424.141 159.132 425.804 153.686 425.334 148.209C424.865 142.732 422.299 137.648 418.172 134.016C414.046 130.385 408.677 128.487 403.184 128.717C397.692 128.948 392.501 131.289 388.693 135.254L256 288.854L207.147 240.854Z" fill="#ECA33D"/>
<path d="M448 234.666C442.342 234.666 436.916 236.914 432.915 240.915C428.914 244.916 426.667 250.342 426.667 256C426.667 301.263 408.686 344.673 376.68 376.679C344.673 408.686 301.264 426.666 256 426.666C222.295 426.651 189.35 416.656 161.318 397.942C133.286 379.228 111.422 352.632 98.4849 321.51C85.5474 290.387 82.115 256.13 88.6205 223.059C95.126 189.988 111.278 159.584 135.04 135.68C150.842 119.667 169.678 106.966 190.448 98.3212C211.218 89.6763 233.503 85.2608 256 85.3332C269.642 85.4186 283.233 86.9923 296.533 90.0265C299.317 90.8874 302.247 91.1691 305.143 90.8542C308.039 90.5393 310.84 89.6345 313.374 88.1956C315.907 86.7567 318.119 84.8142 319.872 82.4878C321.626 80.1614 322.885 77.5004 323.571 74.6689C324.257 71.8375 324.356 68.8955 323.861 66.0244C323.366 63.1533 322.289 60.4139 320.695 57.9751C319.101 55.5364 317.025 53.4499 314.594 51.8443C312.163 50.2388 309.429 49.1482 306.56 48.6398C289.987 44.741 273.025 42.7371 256 42.6665C213.852 42.8855 172.714 55.5843 137.777 79.1604C102.84 102.737 75.6687 136.133 59.6932 175.136C43.7177 214.14 39.6535 257.001 48.0135 298.311C56.3735 339.622 76.7831 377.531 106.667 407.253C146.276 446.881 199.971 469.202 256 469.333C312.579 469.333 366.842 446.857 406.849 406.849C446.857 366.841 469.333 312.579 469.333 256C469.333 250.342 467.086 244.916 463.085 240.915C459.084 236.914 453.658 234.666 448 234.666Z" fill="#ECA33D"/>
</svg>
