<svg width="110" height="110" viewBox="0 0 110 110" fill="none" xmlns="http://www.w3.org/2000/svg">
<path d="M32.0832 68.7501C32.0832 66.2188 30.0311 64.1667 27.4998 64.1667C24.9685 64.1667 22.9165 66.2188 22.9165 68.7501V79.0834C22.9165 83.5017 26.4982 87.0834 30.9165 87.0834H41.2498C43.7811 87.0834 45.8332 85.0314 45.8332 82.5001C45.8332 79.9688 43.7811 77.9167 41.2498 77.9167H38.9582C35.1612 77.9167 32.0832 74.8387 32.0832 71.0417V68.7501ZM22.9165 41.2501C22.9165 43.7814 24.9685 45.8334 27.4998 45.8334C30.0311 45.8334 32.0832 43.7814 32.0832 41.2501V38.9584C32.0832 35.1615 35.1612 32.0834 38.9582 32.0834H41.2498C43.7811 32.0834 45.8332 30.0314 45.8332 27.5001C45.8332 24.9688 43.7811 22.9167 41.2498 22.9167H30.9165C26.4982 22.9167 22.9165 26.4985 22.9165 30.9167V41.2501ZM77.9165 71.0417C77.9165 74.8387 74.8385 77.9167 71.0415 77.9167H68.7498C66.2185 77.9167 64.1665 79.9688 64.1665 82.5001C64.1665 85.0314 66.2185 87.0834 68.7498 87.0834H79.0832C83.5015 87.0834 87.0832 83.5017 87.0832 79.0834V68.7501C87.0832 66.2188 85.0311 64.1667 82.4998 64.1667C79.9685 64.1667 77.9165 66.2188 77.9165 68.7501V71.0417ZM68.7498 22.9167C66.2185 22.9167 64.1665 24.9688 64.1665 27.5001C64.1665 30.0314 66.2185 32.0834 68.7498 32.0834H71.0415C74.8385 32.0834 77.9165 35.1615 77.9165 38.9584V41.2501C77.9165 43.7814 79.9685 45.8334 82.4998 45.8334C85.0311 45.8334 87.0832 43.7814 87.0832 41.2501V30.9167C87.0832 26.4985 83.5014 22.9167 79.0832 22.9167H68.7498Z" fill="white" fill-opacity="0.42"/>
</svg>
