<svg width="70" height="70" viewBox="0 0 70 70" fill="none" xmlns="http://www.w3.org/2000/svg">
<g clip-path="url(#clip0_1165_19)">
<path d="M31.0475 46.8724C31.0475 44.7733 31.3803 42.9301 32.0459 41.343C32.7627 39.7558 33.6331 38.3991 34.657 37.2727C35.681 36.1463 37.0122 34.8663 38.6505 33.4328C40.8521 31.4872 42.4648 29.7977 43.4888 28.3641C44.564 26.8794 45.1015 25.0874 45.1015 22.9883C45.1015 20.1723 44.0008 17.9196 41.7992 16.23C39.5977 14.4893 36.577 13.6189 32.7371 13.6189C26.3884 13.6189 21.499 15.6925 18.0687 19.8395L13.9984 16.7676C18.3503 11.443 24.7245 8.78064 33.1211 8.78064C38.4969 8.78064 42.772 9.98381 45.9463 12.3901C49.1718 14.7965 50.7846 18.0476 50.7846 22.1435C50.7846 24.2426 50.4262 26.1114 49.7094 27.7497C49.0438 29.3369 48.1991 30.6937 47.1751 31.82C46.2023 32.9464 44.8968 34.252 43.2584 35.7367C41.0569 37.7335 39.4185 39.5254 38.3433 41.1126C37.2682 42.6485 36.7306 44.5685 36.7306 46.8724H31.0475ZM33.889 63.384C32.7627 63.384 31.8155 63 31.0475 62.232C30.2795 61.4128 29.8956 60.4657 29.8956 59.3905C29.8956 58.2641 30.2795 57.3425 31.0475 56.6258C31.8155 55.8578 32.7627 55.4738 33.889 55.4738C35.0666 55.4738 36.0394 55.8578 36.8074 56.6258C37.5753 57.3425 37.9593 58.2641 37.9593 59.3905C37.9593 60.4657 37.5497 61.4128 36.7306 62.232C35.9626 63 35.0154 63.384 33.889 63.384Z" fill="white"/>
</g>
<defs>
<clipPath id="clip0_1165_19">
<rect width="70" height="70" fill="white"/>
</clipPath>
</defs>
</svg>
