<svg width="70" height="70" viewBox="0 0 70 70" fill="none" xmlns="http://www.w3.org/2000/svg">
<path d="M59.9236 20.4613C56.4816 20.4613 53.6928 23.2522 53.6928 26.6922C53.6928 27.5645 53.8755 28.3916 54.198 29.1466L45.3849 32.923L38.0122 19.6539C39.9225 18.5873 41.231 16.5711 41.231 14.2304C41.231 10.7904 38.4422 7.99951 35.0001 7.99951C31.5581 7.99951 28.7692 10.7904 28.7692 14.2304C28.7692 16.5711 30.0777 18.5873 31.988 19.6539L24.6153 32.923L15.8022 29.1466C16.1247 28.3916 16.3075 27.5645 16.3075 26.6922C16.3075 23.2522 13.5186 20.4613 10.0766 20.4613C6.63454 20.4613 3.8457 23.2522 3.8457 26.6922C3.8457 30.1321 6.63454 32.923 10.0766 32.923C10.5595 32.923 11.0237 32.854 11.4759 32.7527L16.3075 53.6927V57.8466C16.3075 60.1427 18.1674 62.0005 20.4614 62.0005H49.5388C51.8328 62.0005 53.6928 60.1427 53.6928 57.8466V53.6927L58.5264 32.7527C58.9765 32.8581 59.4407 32.923 59.9236 32.923C63.3657 32.923 66.1545 30.1321 66.1545 26.6922C66.1545 23.2522 63.3657 20.4613 59.9236 20.4613ZM10.0766 28.7691C8.93062 28.7691 7.99962 27.836 7.99962 26.6922C7.99962 25.5483 8.93062 24.6152 10.0766 24.6152C11.2225 24.6152 12.1535 25.5483 12.1535 26.6922C12.1535 27.836 11.2225 28.7691 10.0766 28.7691ZM35.0001 12.1534C36.1461 12.1534 37.0771 13.0865 37.0771 14.2304C37.0771 15.3743 36.1461 16.3074 35.0001 16.3074C33.8541 16.3074 32.9232 15.3743 32.9232 14.2304C32.9232 13.0865 33.8541 12.1534 35.0001 12.1534ZM49.5388 57.8466H20.4614V53.6927H49.5388V57.8466ZM50.3868 49.5387H19.6135L15.9648 33.7346L22.9787 36.7405C23.5098 36.9674 24.0654 37.077 24.6132 37.077C26.0816 37.077 27.4935 36.2981 28.2458 34.9393L35.0001 22.7859L41.7544 34.9393C42.5068 36.2981 43.9186 37.077 45.387 37.077C45.9348 37.077 46.4904 36.9674 47.0216 36.7405L54.0355 33.7346L50.3868 49.5387ZM59.9236 28.7691C58.7777 28.7691 57.8467 27.836 57.8467 26.6922C57.8467 25.5483 58.7777 24.6152 59.9236 24.6152C61.0696 24.6152 62.0006 25.5483 62.0006 26.6922C62.0006 27.836 61.0696 28.7691 59.9236 28.7691Z" fill="white"/>
</svg>
