<svg width="38" height="38" viewBox="0 0 38 38" fill="none" xmlns="http://www.w3.org/2000/svg">
<path fill-rule="evenodd" clip-rule="evenodd" d="M1.47009 37.9911C1.2639 37.9924 1.05977 37.95 0.871129 37.8667C0.682489 37.7834 0.513609 37.6612 0.375591 37.508C0.237574 37.3548 0.133543 37.1741 0.0703376 36.9778C0.00713248 36.7816 -0.0138156 36.5741 0.00887043 36.3692L1.13401 26.1406C1.17407 25.8137 1.32339 25.5099 1.55777 25.2785L21.9296 4.90663C21.9652 4.86146 22.0035 4.81834 22.0444 4.7775C22.0852 4.73667 22.1283 4.69836 22.1735 4.66276L25.4634 1.37285C25.8977 0.937659 26.4136 0.592398 26.9815 0.356827C27.5494 0.121256 28.1582 0 28.7731 0C29.3879 0 29.9967 0.121256 30.5646 0.356827C31.1325 0.592398 31.6484 0.937659 32.0827 1.37285L36.6272 5.91726C37.0623 6.35158 37.4076 6.86746 37.6432 7.43538C37.8787 8.00329 38 8.61209 38 9.22693C38 9.84176 37.8787 10.4506 37.6432 11.0185C37.4076 11.5864 37.0623 12.1023 36.6272 12.5366L33.3432 15.8205C33.306 15.868 33.2658 15.9132 33.2227 15.9559C33.1824 15.9959 33.1399 16.0334 33.0954 16.0684L12.7361 36.4276C12.5047 36.662 12.2009 36.8113 11.874 36.8514L1.64544 37.9765L1.47009 37.9911ZM3.99801 26.9589L23.0728 7.88414L30.1045 14.9386L11.0411 34.002L3.12128 34.8787L3.99801 26.9589ZM34.5668 10.4763L32.1925 12.8507L25.1494 5.80755L27.5237 3.43317C27.6866 3.2697 27.8802 3.14 28.0933 3.0515C28.3065 2.963 28.535 2.91744 28.7658 2.91744C28.9965 2.91744 29.2251 2.963 29.4382 3.0515C29.6513 3.14 29.8449 3.2697 30.0078 3.43317L34.5668 7.99219C34.7303 8.1551 34.86 8.34867 34.9485 8.5618C35.037 8.77494 35.0826 9.00345 35.0826 9.23423C35.0826 9.46502 35.037 9.69353 34.9485 9.90666C34.86 10.1198 34.7303 10.3134 34.5668 10.4763ZM10.6757 25.2623L22.0516 13.8863L24.1181 15.9528L12.7421 27.3288L10.6757 25.2623Z" fill="white" fill-opacity="0.35"/>
</svg>
