<svg width="130" height="130" viewBox="0 0 130 130" fill="none" xmlns="http://www.w3.org/2000/svg">
<path fill-rule="evenodd" clip-rule="evenodd" d="M58.3913 80.1771L78.1003 112.152C78.9626 113.554 80.3099 113.537 80.8543 113.462C81.3986 113.387 82.7082 113.052 83.1825 111.463L107.828 28.2233C108.259 26.752 107.467 25.7496 107.111 25.3939C106.766 25.0382 105.78 24.2783 104.352 24.6825L21.0536 49.0749C19.4745 49.5384 19.1296 50.8642 19.0541 51.4085C18.9787 51.9636 18.9571 53.3379 20.353 54.2164L52.6947 74.4428L81.2692 45.5664C82.8376 43.9819 85.3975 43.9658 86.9874 45.5341C88.5773 47.1024 88.588 49.6677 87.0197 51.2522L58.3913 80.1771ZM80.4339 121.578C76.6829 121.578 73.2444 119.671 71.218 116.394L50.3234 82.4891L16.0684 61.0663C12.3767 58.7542 10.4473 54.6368 11.0455 50.3091C11.6383 45.9814 14.6079 42.543 18.7793 41.3196L102.078 16.9272C105.91 15.8062 110.016 16.8679 112.84 19.6812C115.664 22.5214 116.715 26.6712 115.573 30.5192L90.927 113.753C89.6929 117.941 86.2437 120.899 81.9268 121.476C81.4202 121.541 80.9297 121.578 80.4339 121.578Z" fill="#F8C37B"/>
</svg>
