<svg width="70" height="70" viewBox="0 0 70 70" fill="none" xmlns="http://www.w3.org/2000/svg">
<path d="M34.8933 38.7879C44.4965 38.7879 52.2858 30.9986 52.2858 21.3953C52.2858 11.7921 44.4965 4.05612 34.8933 4.05612C25.29 4.05612 17.5007 11.8454 17.5007 21.3953C17.5007 30.9452 25.29 38.7879 34.8933 38.7879ZM34.8933 8.59099C41.9357 8.59099 47.6976 14.3529 47.6976 21.3953C47.6976 28.4377 41.9357 34.1997 34.8933 34.1997C27.8509 34.1997 22.089 28.4377 22.089 21.3953C22.089 14.3529 27.8509 8.59099 34.8933 8.59099Z" fill="#987B67"/>
<path d="M4.80314 65.9439H65.1969C66.4773 65.9439 67.491 64.9302 67.491 63.6498C67.491 51.6457 57.7277 41.829 45.6703 41.829H24.3297C12.3257 41.829 2.50903 51.5923 2.50903 63.6498C2.50903 64.9302 3.52271 65.9439 4.80314 65.9439ZM24.3297 46.4173H45.6703C54.4199 46.4173 61.6224 52.9261 62.7427 61.3556H7.25731C8.37768 52.9795 15.5801 46.4173 24.3297 46.4173Z" fill="#987B67"/>
</svg>
