<svg width="82" height="82" viewBox="0 0 82 82" fill="none" xmlns="http://www.w3.org/2000/svg">
<path d="M6.83317 58.083H19.263L38.8132 74.377C39.4274 74.8876 40.2011 75.1669 40.9998 75.1663C41.5008 75.1668 41.9956 75.0559 42.4485 74.8417C43.0364 74.5665 43.5337 74.1295 43.8822 73.5819C44.2307 73.0343 44.4161 72.3987 44.4165 71.7496V10.2496C44.4169 9.60011 44.2322 8.96394 43.8839 8.41568C43.5357 7.86741 43.0384 7.42976 42.4504 7.15401C41.8623 6.87826 41.2078 6.77585 40.5636 6.85877C39.9194 6.94169 39.3122 7.20651 38.8132 7.6222L19.263 23.9163H6.83317C5.92701 23.9163 5.05797 24.2763 4.41722 24.917C3.77647 25.5578 3.4165 26.4268 3.4165 27.333V54.6663C3.4165 55.5724 3.77647 56.4415 4.41722 57.0822C5.05797 57.723 5.92701 58.083 6.83317 58.083ZM10.2498 30.7496H20.4998C21.2986 30.7502 22.0723 30.471 22.6865 29.9604L37.5832 17.5442V64.455L22.6865 52.0389C22.0723 51.5283 21.2986 51.249 20.4998 51.2496H10.2498V30.7496ZM78.5832 40.9996C78.5832 41.9058 78.2232 42.7748 77.5825 43.4156C76.9417 44.0563 76.0727 44.4163 75.1665 44.4163H61.4998C60.5937 44.4163 59.7246 44.0563 59.0839 43.4156C58.4431 42.7748 58.0832 41.9058 58.0832 40.9996C58.0832 40.0935 58.4431 39.2244 59.0839 38.5837C59.7246 37.9429 60.5937 37.5829 61.4998 37.5829H75.1665C76.0727 37.5829 76.9417 37.9429 77.5825 38.5837C78.2232 39.2244 78.5832 40.0935 78.5832 40.9996ZM70.7488 16.0819L57.0821 29.7485C56.4377 30.3709 55.5746 30.7153 54.6788 30.7075C53.783 30.6997 52.926 30.3404 52.2925 29.7069C51.6591 29.0734 51.2997 28.2165 51.292 27.3207C51.2842 26.4248 51.6285 25.5618 52.2509 24.9174L65.9176 11.2507C66.2328 10.9244 66.6098 10.6641 67.0266 10.485C67.4435 10.306 67.8918 10.2117 68.3455 10.2078C68.7991 10.2038 69.249 10.2903 69.6689 10.4621C70.0888 10.6339 70.4703 10.8875 70.7911 11.2083C71.1119 11.5291 71.3656 11.9106 71.5374 12.3305C71.7092 12.7504 71.7956 13.2003 71.7917 13.654C71.7878 14.1076 71.6935 14.556 71.5144 14.9728C71.3354 15.3897 71.0751 15.7667 70.7488 16.0819ZM57.0821 52.2507L70.7488 65.9174C71.0751 66.2325 71.3354 66.6096 71.5144 67.0264C71.6935 67.4432 71.7878 67.8916 71.7917 68.3452C71.7956 68.7989 71.7092 69.2488 71.5374 69.6687C71.3656 70.0886 71.1119 70.4701 70.7911 70.7909C70.4703 71.1117 70.0888 71.3654 69.6689 71.5372C69.249 71.709 68.7991 71.7954 68.3455 71.7915C67.8918 71.7875 67.4435 71.6933 67.0266 71.5142C66.6098 71.3351 66.2328 71.0749 65.9176 70.7485L52.2509 57.0819C51.6285 56.4375 51.2842 55.5744 51.292 54.6786C51.2997 53.7827 51.6591 52.9258 52.2925 52.2923C52.926 51.6588 53.783 51.2995 54.6788 51.2917C55.5746 51.2839 56.4377 51.6283 57.0821 52.2507Z" fill="white" fill-opacity="0.37"/>
</svg>
